<svg xmlns="http://www.w3.org/2000/svg" viewBox="0 0 1481.97 1481.97"><defs><style>.cls-1{fill:#1ed761;}.cls-2{fill-rule:evenodd;}</style></defs><title>Spotify</title><g id="Layer_2" data-name="Layer 2"><g id="Layer_1-2" data-name="Layer 1"><circle class="cls-1" cx="740.99" cy="740.99" r="740.99" transform="translate(-306.93 740.99) rotate(-45)"/><path class="cls-2" d="M1282.51,595.76c-.22,53.65-56.47,86.51-103.59,59.85-32-18.08-64.66-34.47-98.73-48.13-67.69-27.14-137.84-45.4-209.55-58.05a1325.8,1325.8,0,0,0-150.76-17.67,1410.63,1410.63,0,0,0-157.82-.8c-60.32,3.12-120.17,9.74-179.23,22.5C361,558.17,339.5,564.1,318,569.86c-13.22,3.53-26.25,4-39.41.13A68.78,68.78,0,0,1,229,505.52c-.83-29.37,17.28-56.67,45.75-66,20.84-6.87,42.23-12.27,63.63-17.22,53-12.24,106.69-19.81,160.84-24.76A1445.68,1445.68,0,0,1,672,392.21c142,4.06,281.23,24.83,416,71.34,54.94,19,107.82,42.51,158.08,71.84,17.91,10.45,29.94,25.18,34.52,45.56C1281.61,585.79,1281.87,590.82,1282.51,595.76Z"/><path class="cls-2" d="M611.76,761.26c-84.63.35-171.33,10.84-256,36-13.8,4.1-27.65,4.37-41.17-1.1A57.14,57.14,0,0,1,279,741.84c.81-24.34,15.65-45.54,39.11-52.7,23.88-7.29,48.11-13.61,72.48-19,60-13.33,120.8-20.37,182.24-22.7,132.18-5,261.31,12.08,387.28,52.45,63.7,20.42,124.63,47.15,182.18,81.38,2.87,1.7,5.71,3.44,8.55,5.18,30,18.34,33.6,55.25,19.29,78.78-16.37,26.89-50.41,35.26-78.7,19.3-16-9-31.73-18.38-48-26.7C968.63,819.69,889.32,795,807,779.4,743.68,767.4,679.72,761.54,611.76,761.26Z"/><path class="cls-2" d="M625,886.78c97.42,1,192.73,14.19,285.22,45.38a757.67,757.67,0,0,1,146,67,125.38,125.38,0,0,1,11.78,7.55,45.68,45.68,0,0,1-46,78.21,116.92,116.92,0,0,1-12.23-6.77c-78.42-46.48-163-75.27-253-89.05a871.29,871.29,0,0,0-166.43-9.19c-72.1,2.83-143.29,12.83-213.72,28.43-7.11,1.57-14.43,3-21.67,3.08a44.19,44.19,0,0,1-44.05-36.2c-4.05-22.21,6.95-43,27.32-51.21a87,87,0,0,1,13.43-3.85c57.61-12.94,115.76-22.72,174.6-27.7C559.08,889.72,592.07,888.63,625,886.78Z"/></g></g></svg>